<?xml version="1.0" standalone="no"?><!DOCTYPE svg PUBLIC "-//W3C//DTD SVG 1.1//EN" "http://www.w3.org/Graphics/SVG/1.1/DTD/svg11.dtd"><svg t="1533610544483" class="icon" style="" viewBox="0 0 1024 1024" version="1.1" xmlns="http://www.w3.org/2000/svg" p-id="5249" xmlns:xlink="http://www.w3.org/1999/xlink" width="200" height="200"><defs><style type="text/css"></style></defs><path d="M221.44 963.584A57.344 57.344 0 0 1 168.448 1024H67.584a57.344 57.344 0 0 1-52.992-60.416v-128a57.344 57.344 0 0 1 52.992-60.416h100.864a57.344 57.344 0 0 1 52.992 60.416z m262.912 0A57.344 57.344 0 0 1 431.36 1024H330.496a57.344 57.344 0 0 1-52.992-60.416V563.2a57.344 57.344 0 0 1 52.992-60.416h101.12a57.344 57.344 0 0 1 52.992 60.416v400.384zM1024 960.256A60.416 60.416 0 0 1 968.192 1024H872.96a60.416 60.416 0 0 1-55.808-63.744v-522.24a60.416 60.416 0 0 1 55.808-63.744h95.232A60.416 60.416 0 0 1 1024 438.016v522.24z m-276.48 3.328A57.344 57.344 0 0 1 694.528 1024h-101.12a57.344 57.344 0 0 1-52.992-60.416V686.592a57.344 57.344 0 0 1 52.992-60.416h100.864a57.344 57.344 0 0 1 52.992 60.416z" p-id="5250"></path><path d="M981.504 0L780.288 25.6l66.304 76.8-218.368 304.64-226.56-240.64a37.12 37.12 0 0 0-55.04 0L13.568 509.44a51.2 51.2 0 0 0-3.584 65.024 38.656 38.656 0 0 0 30.464 15.36 37.888 37.888 0 0 0 27.392-12.032l305.408-314.88 230.4 243.712a37.632 37.632 0 0 0 58.624-3.584l240.64-335.872 56.832 63.232z" p-id="5251"></path></svg>