<?xml version="1.0" standalone="no"?><!DOCTYPE svg PUBLIC "-//W3C//DTD SVG 1.1//EN" "http://www.w3.org/Graphics/SVG/1.1/DTD/svg11.dtd"><svg t="1534231731245" class="icon" style="" viewBox="0 0 1024 1024" version="1.1" xmlns="http://www.w3.org/2000/svg" p-id="6533" xmlns:xlink="http://www.w3.org/1999/xlink" width="200" height="200"><defs><style type="text/css"></style></defs><path d="M278.4 582.4H736l105.6-140.8H176l102.4 140.8zM1001.6 163.2c-6.4-3.2-9.6-3.2-16-3.2H35.2C16 160 0 176 0 195.2c0 9.6 6.4 19.2 12.8 25.6l112 150.4h774.4l115.2-153.6c3.2-3.2 3.2-3.2 3.2-6.4l3.2-3.2c9.6-16 0-38.4-19.2-44.8zM470.4 838.4c3.2 3.2 3.2 6.4 6.4 9.6 3.2 6.4 9.6 9.6 16 12.8 19.2 6.4 41.6 0 48-19.2l144-188.8h-352l137.6 185.6z" p-id="6534"></path></svg>