<?xml version="1.0" standalone="no"?><!DOCTYPE svg PUBLIC "-//W3C//DTD SVG 1.1//EN" "http://www.w3.org/Graphics/SVG/1.1/DTD/svg11.dtd"><svg t="1534227989663" class="icon" style="" viewBox="0 0 1317 1024" version="1.1" xmlns="http://www.w3.org/2000/svg" p-id="1500" xmlns:xlink="http://www.w3.org/1999/xlink" width="257.2265625" height="200"><defs><style type="text/css"></style></defs><path d="M796.551403 731.378034a148.908239 148.908239 0 0 1 69.106586 13.16316l182.638834-225.419102a146.440146 146.440146 0 1 1 54.298032 49.361847l-180.170742 222.128312a146.440146 146.440146 0 1 1-195.801993-37.021386L530.820126 291.234898a148.085541 148.085541 0 0 1-95.432904-20.567436L257.684572 493.618471a146.440146 146.440146 0 1 1-60.056914-41.95757l186.752322-230.355287a146.440146 146.440146 0 1 1 214.724035 46.893755l197.447388 463.178665z m0 0" p-id="1501"></path></svg>