<?xml version="1.0" standalone="no"?><!DOCTYPE svg PUBLIC "-//W3C//DTD SVG 1.1//EN" "http://www.w3.org/Graphics/SVG/1.1/DTD/svg11.dtd"><svg t="1534232707983" class="icon" style="" viewBox="0 0 1024 1024" version="1.1" xmlns="http://www.w3.org/2000/svg" p-id="9356" xmlns:xlink="http://www.w3.org/1999/xlink" width="200" height="200"><defs><style type="text/css"></style></defs><path d="M18.944 144.896h742.912v87.04H18.944zM18.944 296.448h307.712v87.04H18.944z" fill="#B7D3F3" p-id="9357"></path><path d="M138.752 794.624H81.92v-249.856L18.944 600.064v-61.44L81.92 483.84h56.832v310.784zM278.528 818.688l-62.464 48.128v-134.144h62.464v86.016zM522.24 794.624H333.312v-51.2l116.224-134.656c5.632-6.656 9.728-12.8 12.288-18.432s3.584-12.288 3.584-19.456c0-7.68-1.536-14.336-4.608-19.968-3.072-6.144-7.168-10.24-12.8-13.824-5.632-3.072-12.288-5.12-20.48-5.12-10.752 0-19.456 3.072-27.136 9.728-7.168 6.144-10.752 16.384-10.752 30.208h-56.32c0-18.432 4.096-34.816 12.288-48.64s19.456-24.576 33.792-31.744 30.72-10.752 48.128-10.752c13.824 0 26.624 2.048 37.888 6.144 11.776 4.096 21.504 10.24 30.208 17.92s14.848 17.408 19.456 28.16c4.608 11.264 7.168 23.552 7.168 37.888 0 13.824-2.56 25.6-7.68 35.328s-13.824 21.504-25.6 35.84l-87.04 100.864H522.24v51.712zM755.2 704.512c0 19.456-4.096 35.84-12.8 49.664-8.192 13.824-19.968 24.576-34.304 31.744s-30.208 10.752-47.104 10.752c-12.8 0-24.576-2.048-36.352-6.144s-21.504-10.24-30.72-18.432c-8.704-8.192-15.872-17.92-20.48-29.184-5.12-11.776-7.168-24.576-7.168-38.912V573.44c0-14.336 2.56-27.136 7.168-38.912 5.12-11.264 11.776-21.504 20.48-29.184 8.704-8.192 18.944-14.336 30.72-18.432 11.264-4.096 23.552-6.144 36.352-6.144 16.896 0 32.768 3.584 47.104 10.752s26.112 17.92 34.304 31.744c8.192 13.824 12.8 30.208 12.8 49.664v131.584z m-56.832-0.512v-129.536c0-12.8-3.584-23.04-10.24-30.72s-15.872-11.264-27.136-11.264-19.968 4.096-27.136 11.776-10.752 17.92-10.752 30.72v129.536c0 12.8 3.584 23.04 10.752 30.72s16.384 11.264 27.136 11.264c7.68 0 14.336-1.536 19.968-5.12s10.24-8.192 13.312-14.848c2.56-6.656 4.096-14.336 4.096-22.528zM996.352 535.04l-100.864 259.584h-61.44l100.864-259.584h-81.92v48.64H798.72V483.84h198.144l-0.512 51.2z" fill="#4A90E2" p-id="9358"></path></svg>