<?xml version="1.0" standalone="no"?><!DOCTYPE svg PUBLIC "-//W3C//DTD SVG 1.1//EN" "http://www.w3.org/Graphics/SVG/1.1/DTD/svg11.dtd"><svg t="1534231659736" class="icon" style="" viewBox="0 0 1024 1024" version="1.1" xmlns="http://www.w3.org/2000/svg" p-id="5305" xmlns:xlink="http://www.w3.org/1999/xlink" width="200" height="200"><defs><style type="text/css"></style></defs><path d="M43.885714 972.8V0H0v1024h1024v-51.2H43.885714z" fill="#819292" p-id="5306"></path><path d="M146.285714 789.942857h-29.257143v14.628572h65.828572v-14.628572h-21.942857V731.428571h87.771428V482.742857H160.914286v-65.828571h29.257143v-7.314286h-73.142858v14.628571H146.285714v65.828572H58.514286V731.428571H146.285714v58.514286z m-65.828571-285.257143h146.285714v197.485715h-146.285714V504.685714z" fill="#2593FC" p-id="5307"></path><path d="M380.342857 431.542857h-29.257143v14.628572h65.828572v-14.628572h-21.942857v-58.514286h87.771428V197.485714H394.971429v-58.514285h29.257142v-14.628572h-73.142857v14.628572h29.257143v58.514285H292.571429V365.714286h87.771428v65.828571z m-65.828571-204.8h146.285714v117.028572h-146.285714V226.742857z" fill="#27C2C1" p-id="5308"></path><path d="M614.4 797.257143h7.314286v14.628571h87.771428V402.285714H621.714286v21.942857h-7.314286v-21.942857H526.628571v409.6h87.771429v-14.628571zM533.942857 665.6l7.314286-241.371429h146.285714v241.371429h7.314286v117.028571h-146.285714V694.857143h-14.628572v-29.257143z" fill="#38C060" p-id="5309"></path><path d="M621.714286 416.914286V314.514286h43.885714v-14.628572H570.514286v14.628572h43.885714v109.714285l7.314286-7.314285z m-7.314286 380.342857v73.142857h-43.885714v14.628571H665.6v-14.628571h-43.885714v-73.142857h-7.314286z" fill="#38C060" p-id="5310"></path><path d="M841.142857 409.6h7.314286v7.314286h87.771428V285.257143h-87.771428v14.628571h-7.314286v-14.628571h-87.771428v131.657143l87.771428-7.314286z m-73.142857-95.085714h146.285714v73.142857h-146.285714v-73.142857z" fill="#F9CB34" p-id="5311"></path><path d="M848.457143 299.885714v-58.514285h43.885714v-14.628572h-102.4v14.628572h43.885714v58.514285h14.628572z m-7.314286 95.085715v153.6h-43.885714v14.628571h102.4v-14.628571h-43.885714V394.971429h-14.628572z" fill="#F9CB34" p-id="5312"></path><path d="M694.857143 694.857143h7.314286v-29.257143H533.942857v29.257143h160.914286z" fill="#38C060" p-id="5313"></path></svg>