<?xml version="1.0" standalone="no"?><!DOCTYPE svg PUBLIC "-//W3C//DTD SVG 1.1//EN" "http://www.w3.org/Graphics/SVG/1.1/DTD/svg11.dtd"><svg t="1534228093390" class="icon" style="" viewBox="0 0 1024 1024" version="1.1" xmlns="http://www.w3.org/2000/svg" p-id="2714" xmlns:xlink="http://www.w3.org/1999/xlink" width="200" height="200"><defs><style type="text/css"></style></defs><path d="M341.333333 362.666667C282.538667 362.666667 234.666667 314.794667 234.666667 256S282.538667 149.333333 341.333333 149.333333s106.666667 47.872 106.666667 106.666667S400.128 362.666667 341.333333 362.666667z m0-170.666667c-35.285333 0-64 28.714667-64 64S306.048 320 341.333333 320 405.333333 291.285333 405.333333 256 376.618667 192 341.333333 192zM277.333333 789.333333c-47.061333 0-85.333333-38.272-85.333333-85.333333s38.272-85.333333 85.333333-85.333333 85.333333 38.272 85.333334 85.333333-38.272 85.333333-85.333334 85.333333z m0-128a42.709333 42.709333 0 0 0 0 85.333334 42.709333 42.709333 0 0 0 0-85.333334zM768 448c-58.837333 0-106.666667-47.872-106.666667-106.666667s47.829333-106.666667 106.666667-106.666666 106.666667 47.872 106.666667 106.666666-47.829333 106.666667-106.666667 106.666667z m0-170.666667c-35.285333 0-64 28.714667-64 64s28.714667 64 64 64 64-28.714667 64-64-28.714667-64-64-64zM512 661.333333c-82.346667 0-149.333333-66.986667-149.333333-149.333333s66.986667-149.333333 149.333333-149.333333 149.333333 66.986667 149.333333 149.333333-66.986667 149.333333-149.333333 149.333333z m0-256A106.794667 106.794667 0 0 0 405.333333 512c0 58.837333 47.872 106.666667 106.666667 106.666667 58.837333 0 106.666667-47.829333 106.666667-106.666667 0-58.794667-47.829333-106.666667-106.666667-106.666667zM725.333333 832c-58.837333 0-106.666667-47.829333-106.666666-106.666667s47.829333-106.666667 106.666666-106.666666 106.666667 47.829333 106.666667 106.666666-47.829333 106.666667-106.666667 106.666667z m0-170.666667c-35.285333 0-64 28.714667-64 64s28.714667 64 64 64 64-28.714667 64-64-28.714667-64-64-64zM85.333333 85.333333h42.666667v853.333334H85.333333z" p-id="2715"></path><path d="M85.333333 896h853.333334v42.666667H85.333333z" p-id="2716"></path></svg>