<?xml version="1.0" standalone="no"?><!DOCTYPE svg PUBLIC "-//W3C//DTD SVG 1.1//EN" "http://www.w3.org/Graphics/SVG/1.1/DTD/svg11.dtd"><svg t="1534232249487" class="icon" style="" viewBox="0 0 1024 1024" version="1.1" xmlns="http://www.w3.org/2000/svg" p-id="7953" xmlns:xlink="http://www.w3.org/1999/xlink" width="200" height="200"><defs><style type="text/css"></style></defs><path d="M866.987 259.413c0-6.827 0-6.827 0 0V245.76L703.147 102.4c-6.827-6.827-13.653-6.827-20.48-6.827h-471.04c-34.133-6.827-54.613 6.827-54.613 40.96v750.933c0 34.133 13.653 47.787 47.787 47.787h607.573c34.133 0 47.787-13.653 47.787-47.787l6.827-628.053zM716.8 730.453H307.2c-13.653 0-27.307-13.653-27.307-27.307s13.653-27.307 27.307-27.307h409.6c13.653 0 27.307 13.653 27.307 27.307 0 20.48-13.653 27.307-27.307 27.307z m0-143.36H307.2c-13.653 0-27.307-13.653-27.307-27.307s13.653-27.307 27.307-27.307h409.6c13.653 0 27.307 13.653 27.307 27.307s-13.653 27.307-27.307 27.307z m0-157.013H307.2c-13.653 0-27.307-13.653-27.307-27.307s13.653-27.307 27.307-27.307h409.6c13.653 0 27.307 13.653 27.307 27.307S730.454 430.08 716.8 430.08z m-13.653-197.973v-61.44l61.44 54.613h-61.44v6.827z" fill="#666666" p-id="7954"></path></svg>