<?xml version="1.0" standalone="no"?><!DOCTYPE svg PUBLIC "-//W3C//DTD SVG 1.1//EN" "http://www.w3.org/Graphics/SVG/1.1/DTD/svg11.dtd"><svg t="1534231643348" class="icon" style="" viewBox="0 0 1024 1024" version="1.1" xmlns="http://www.w3.org/2000/svg" p-id="5064" xmlns:xlink="http://www.w3.org/1999/xlink" width="200" height="200"><defs><style type="text/css"></style></defs><path d="M512.013 70.675c-243.747 0-441.335 197.588-441.335 441.328 0 243.737 197.588 441.322 441.335 441.322 243.718 0 441.31-197.585 441.31-441.322 0-243.74-197.591-441.328-441.31-441.328zM512.013 884.505c-205.735 0-372.512-166.78-372.512-372.5 0-205.728 166.777-372.5 372.512-372.5 205.71 0 372.482 166.772 372.482 372.5 0 205.721-166.772 372.5-372.482 372.5z" fill="" p-id="5065"></path><path d="M903.274 490.060h-41.191l-251.829-89.121 131.718-225.356c7.884-13.655 3.203-31.131-10.462-39.021-13.661-7.887-31.135-3.202-39.019 10.453l-132.71 227.052-181.946-134.566-41.104-71.061c-7.884-13.655-25.359-18.34-39.024-10.45-13.661 7.887-18.341 25.362-10.457 39.018l36.96 63.897-80.193 229.155h-133.167c-15.767 0-28.562 12.907-28.562 28.686 0 15.774 12.795 28.681 28.562 28.681h141.255l121.692 144.837-86.545 148.069c-7.888 13.663-3.207 31.138 10.452 39.025 13.665 7.89 31.14 3.205 39.028-10.458l86.622-148.201 190.499 40.939 62.044 107.261c7.888 13.663 25.363 18.347 39.023 10.461 13.665-7.89 18.346-25.365 10.458-39.028l-57.782-99.894 208.585-193.011h27.094c15.776 0 28.571-12.907 28.571-28.681-0.001-15.778-12.796-28.685-28.572-28.685zM714.933 490.060h-156.771l26.869-45.971 129.902 45.971zM534.863 416.699l-27.407 46.891-67.894-117.375 95.301 70.484zM356.615 316.926l100.147 173.133h-160.735l60.588-173.133zM316.225 547.426h142.228l-58.351 99.833-83.877-99.833zM449.428 676.092l57.77-98.837 73.488 127.045-131.258-28.208zM642.396 696.873l-86.445-149.446h247.949l-161.504 149.446z" fill="" p-id="5066"></path></svg>