<?xml version="1.0" standalone="no"?><!DOCTYPE svg PUBLIC "-//W3C//DTD SVG 1.1//EN" "http://www.w3.org/Graphics/SVG/1.1/DTD/svg11.dtd"><svg t="1534228112928" class="icon" style="" viewBox="0 0 1024 1024" version="1.1" xmlns="http://www.w3.org/2000/svg" p-id="3406" xmlns:xlink="http://www.w3.org/1999/xlink" width="200" height="200"><defs><style type="text/css"></style></defs><path d="M672 224V384H896v64h-224v160H896v64h-224v160h-64v-160h-192v160h-64v-160H128v-64h224V448H128V384h224V224H128V832h768V224h-224z m-64 0h-192V384h192V224z m0 224h-192v160h192V448zM64 229.9904c0-56.32 45.6704-101.9904 102.7584-101.9904h690.4832a102.4 102.4 0 0 1 102.7584 101.9904v564.0192c0 56.32-45.6704 101.9904-102.7584 101.9904H166.7584a102.4 102.4 0 0 1-102.7584-101.9904V229.9904z" p-id="3407"></path></svg>