<?xml version="1.0" standalone="no"?><!DOCTYPE svg PUBLIC "-//W3C//DTD SVG 1.1//EN" "http://www.w3.org/Graphics/SVG/1.1/DTD/svg11.dtd"><svg t="1533610339207" class="icon" style="" viewBox="0 0 1024 1024" version="1.1" xmlns="http://www.w3.org/2000/svg" p-id="2251" xmlns:xlink="http://www.w3.org/1999/xlink" width="200" height="200"><defs><style type="text/css"></style></defs><path d="M512 1020.183991c-261.972393 0-474.42699-85.532789-474.42699-191.0714l0 0 0-107.525645c0 105.606351 212.477178 171.201058 474.42699 171.201058 261.949813 0 474.42699-65.594708 474.42699-171.201058l0 107.525645 0 0C986.42699 934.651202 773.927233 1020.183991 512 1020.183991L512 1020.183991zM512 829.112591c-261.972393 0-474.42699-85.555369-474.42699-191.09398l0-107.525645c0 105.606351 212.477178 171.223638 474.42699 171.223638 261.949813 0 474.42699-65.594708 474.42699-171.223638l0 107.525645C986.42699 743.557222 773.927233 829.112591 512 829.112591L512 829.112591zM512 638.018611c-261.972393 0-474.42699-85.555369-474.42699-191.09398l0-107.525645c0 105.606351 212.477178 171.223638 474.42699 171.223638 261.949813 0 474.42699-65.594708 474.42699-171.223638l0 107.525645C986.42699 552.463241 773.927233 638.018611 512 638.018611L512 638.018611zM512 446.924631c-261.972393 0-474.42699-85.555369-474.42699-191.09398L37.57301 192.132657c0-105.538611 212.477178-191.09398 474.42699-191.09398 261.949813 0 474.42699 85.555369 474.42699 191.09398l0 63.697993C986.42699 361.369261 773.927233 446.924631 512 446.924631L512 446.924631zM512 446.924631" p-id="2252"></path></svg>